<mxfile host="app.diagrams.net" agent="Mozilla/5.0 (X11; Linux x86_64) AppleWebKit/537.36 (KHTML, like Gecko) Chrome/127.0.0.0 Safari/537.36" version="24.7.5">
  <diagram name="Page-1" id="kRg1-ay8pMj5Pi-dX9Vl">
    <mxGraphModel dx="1342" dy="816" grid="1" gridSize="10" guides="1" tooltips="1" connect="1" arrows="1" fold="1" page="1" pageScale="1" pageWidth="850" pageHeight="1100" math="0" shadow="0">
      <root>
        <mxCell id="0" />
        <mxCell id="1" parent="0" />
        <mxCell id="BigQCFhnfqjvSyWV48ns-22" style="rounded=0;orthogonalLoop=1;jettySize=auto;html=1;endArrow=none;endFill=0;" edge="1" parent="1" source="BigQCFhnfqjvSyWV48ns-14" target="BigQCFhnfqjvSyWV48ns-20">
          <mxGeometry relative="1" as="geometry" />
        </mxCell>
        <mxCell id="BigQCFhnfqjvSyWV48ns-23" style="rounded=0;orthogonalLoop=1;jettySize=auto;html=1;entryX=0;entryY=0.5;entryDx=0;entryDy=0;endArrow=none;endFill=0;" edge="1" parent="1" source="BigQCFhnfqjvSyWV48ns-14" target="BigQCFhnfqjvSyWV48ns-19">
          <mxGeometry relative="1" as="geometry" />
        </mxCell>
        <mxCell id="BigQCFhnfqjvSyWV48ns-24" style="rounded=0;orthogonalLoop=1;jettySize=auto;html=1;entryX=0.5;entryY=1;entryDx=0;entryDy=0;endArrow=none;endFill=0;" edge="1" parent="1" source="BigQCFhnfqjvSyWV48ns-14" target="BigQCFhnfqjvSyWV48ns-18">
          <mxGeometry relative="1" as="geometry" />
        </mxCell>
        <mxCell id="BigQCFhnfqjvSyWV48ns-25" style="rounded=0;orthogonalLoop=1;jettySize=auto;html=1;entryX=0.5;entryY=1;entryDx=0;entryDy=0;endArrow=none;endFill=0;" edge="1" parent="1" source="BigQCFhnfqjvSyWV48ns-14" target="BigQCFhnfqjvSyWV48ns-17">
          <mxGeometry relative="1" as="geometry" />
        </mxCell>
        <mxCell id="BigQCFhnfqjvSyWV48ns-26" style="rounded=0;orthogonalLoop=1;jettySize=auto;html=1;entryX=1;entryY=0.5;entryDx=0;entryDy=0;endArrow=none;endFill=0;" edge="1" parent="1" source="BigQCFhnfqjvSyWV48ns-14" target="BigQCFhnfqjvSyWV48ns-16">
          <mxGeometry relative="1" as="geometry" />
        </mxCell>
        <mxCell id="BigQCFhnfqjvSyWV48ns-27" style="rounded=0;orthogonalLoop=1;jettySize=auto;html=1;entryX=1;entryY=0.5;entryDx=0;entryDy=0;endArrow=none;endFill=0;" edge="1" parent="1" source="BigQCFhnfqjvSyWV48ns-14" target="BigQCFhnfqjvSyWV48ns-15">
          <mxGeometry relative="1" as="geometry" />
        </mxCell>
        <mxCell id="BigQCFhnfqjvSyWV48ns-28" style="rounded=0;orthogonalLoop=1;jettySize=auto;html=1;entryX=0.5;entryY=1;entryDx=0;entryDy=0;endArrow=none;endFill=0;" edge="1" parent="1" source="BigQCFhnfqjvSyWV48ns-14" target="BigQCFhnfqjvSyWV48ns-21">
          <mxGeometry relative="1" as="geometry" />
        </mxCell>
        <mxCell id="BigQCFhnfqjvSyWV48ns-31" value="" style="edgeStyle=orthogonalEdgeStyle;rounded=0;orthogonalLoop=1;jettySize=auto;html=1;endArrow=none;endFill=0;shape=link;" edge="1" parent="1" source="BigQCFhnfqjvSyWV48ns-14" target="BigQCFhnfqjvSyWV48ns-30">
          <mxGeometry relative="1" as="geometry" />
        </mxCell>
        <mxCell id="BigQCFhnfqjvSyWV48ns-14" value="Usuários" style="whiteSpace=wrap;html=1;align=center;" vertex="1" parent="1">
          <mxGeometry x="250" y="350" width="100" height="40" as="geometry" />
        </mxCell>
        <mxCell id="BigQCFhnfqjvSyWV48ns-15" value="id" style="ellipse;whiteSpace=wrap;html=1;align=center;" vertex="1" parent="1">
          <mxGeometry x="60" y="350" width="100" height="40" as="geometry" />
        </mxCell>
        <mxCell id="BigQCFhnfqjvSyWV48ns-16" value="nome" style="ellipse;whiteSpace=wrap;html=1;align=center;" vertex="1" parent="1">
          <mxGeometry x="80" y="280" width="100" height="40" as="geometry" />
        </mxCell>
        <mxCell id="BigQCFhnfqjvSyWV48ns-17" value="telefone" style="ellipse;whiteSpace=wrap;html=1;align=center;" vertex="1" parent="1">
          <mxGeometry x="150" y="200" width="100" height="40" as="geometry" />
        </mxCell>
        <mxCell id="BigQCFhnfqjvSyWV48ns-18" value="senha" style="ellipse;whiteSpace=wrap;html=1;align=center;" vertex="1" parent="1">
          <mxGeometry x="360" y="200" width="100" height="40" as="geometry" />
        </mxCell>
        <mxCell id="BigQCFhnfqjvSyWV48ns-19" value="tfa" style="ellipse;whiteSpace=wrap;html=1;align=center;" vertex="1" parent="1">
          <mxGeometry x="425" y="280" width="100" height="40" as="geometry" />
        </mxCell>
        <mxCell id="BigQCFhnfqjvSyWV48ns-20" value="criado em" style="ellipse;whiteSpace=wrap;html=1;align=center;" vertex="1" parent="1">
          <mxGeometry x="440" y="360" width="100" height="40" as="geometry" />
        </mxCell>
        <mxCell id="BigQCFhnfqjvSyWV48ns-21" value="atualizado em" style="ellipse;whiteSpace=wrap;html=1;align=center;" vertex="1" parent="1">
          <mxGeometry x="250" y="150" width="100" height="40" as="geometry" />
        </mxCell>
        <mxCell id="BigQCFhnfqjvSyWV48ns-86" style="edgeStyle=orthogonalEdgeStyle;rounded=0;orthogonalLoop=1;jettySize=auto;html=1;entryX=0;entryY=0.5;entryDx=0;entryDy=0;endArrow=none;endFill=0;" edge="1" parent="1" source="BigQCFhnfqjvSyWV48ns-29" target="BigQCFhnfqjvSyWV48ns-85">
          <mxGeometry relative="1" as="geometry" />
        </mxCell>
        <mxCell id="BigQCFhnfqjvSyWV48ns-95" value="N" style="edgeLabel;html=1;align=center;verticalAlign=middle;resizable=0;points=[];" vertex="1" connectable="0" parent="BigQCFhnfqjvSyWV48ns-86">
          <mxGeometry x="0.78" y="-3" relative="1" as="geometry">
            <mxPoint y="-9" as="offset" />
          </mxGeometry>
        </mxCell>
        <mxCell id="BigQCFhnfqjvSyWV48ns-29" value="Funcionário" style="whiteSpace=wrap;html=1;align=center;" vertex="1" parent="1">
          <mxGeometry x="500" y="590" width="100" height="40" as="geometry" />
        </mxCell>
        <mxCell id="BigQCFhnfqjvSyWV48ns-32" style="rounded=0;orthogonalLoop=1;jettySize=auto;html=1;entryX=0;entryY=0.5;entryDx=0;entryDy=0;endArrow=none;endFill=0;edgeStyle=orthogonalEdgeStyle;" edge="1" parent="1" source="BigQCFhnfqjvSyWV48ns-30" target="BigQCFhnfqjvSyWV48ns-29">
          <mxGeometry relative="1" as="geometry">
            <Array as="points">
              <mxPoint x="300" y="610" />
            </Array>
          </mxGeometry>
        </mxCell>
        <mxCell id="BigQCFhnfqjvSyWV48ns-36" style="rounded=0;orthogonalLoop=1;jettySize=auto;html=1;endArrow=none;endFill=0;" edge="1" parent="1" source="BigQCFhnfqjvSyWV48ns-30" target="BigQCFhnfqjvSyWV48ns-35">
          <mxGeometry relative="1" as="geometry" />
        </mxCell>
        <mxCell id="BigQCFhnfqjvSyWV48ns-51" style="rounded=0;orthogonalLoop=1;jettySize=auto;html=1;entryX=0;entryY=0.5;entryDx=0;entryDy=0;endArrow=none;endFill=0;edgeStyle=orthogonalEdgeStyle;" edge="1" parent="1" source="BigQCFhnfqjvSyWV48ns-30" target="BigQCFhnfqjvSyWV48ns-33">
          <mxGeometry relative="1" as="geometry">
            <Array as="points">
              <mxPoint x="300" y="720" />
            </Array>
          </mxGeometry>
        </mxCell>
        <mxCell id="BigQCFhnfqjvSyWV48ns-30" value="D" style="ellipse;whiteSpace=wrap;html=1;" vertex="1" parent="1">
          <mxGeometry x="285" y="500" width="30" height="30" as="geometry" />
        </mxCell>
        <mxCell id="BigQCFhnfqjvSyWV48ns-44" style="rounded=0;orthogonalLoop=1;jettySize=auto;html=1;endArrow=none;endFill=0;" edge="1" parent="1" source="BigQCFhnfqjvSyWV48ns-33" target="BigQCFhnfqjvSyWV48ns-43">
          <mxGeometry relative="1" as="geometry" />
        </mxCell>
        <mxCell id="BigQCFhnfqjvSyWV48ns-45" style="rounded=0;orthogonalLoop=1;jettySize=auto;html=1;endArrow=none;endFill=0;" edge="1" parent="1" source="BigQCFhnfqjvSyWV48ns-33" target="BigQCFhnfqjvSyWV48ns-39">
          <mxGeometry relative="1" as="geometry" />
        </mxCell>
        <mxCell id="BigQCFhnfqjvSyWV48ns-46" style="rounded=0;orthogonalLoop=1;jettySize=auto;html=1;endArrow=none;endFill=0;" edge="1" parent="1" source="BigQCFhnfqjvSyWV48ns-33" target="BigQCFhnfqjvSyWV48ns-42">
          <mxGeometry relative="1" as="geometry" />
        </mxCell>
        <mxCell id="BigQCFhnfqjvSyWV48ns-89" style="edgeStyle=orthogonalEdgeStyle;rounded=0;orthogonalLoop=1;jettySize=auto;html=1;entryX=0;entryY=0.5;entryDx=0;entryDy=0;endArrow=none;endFill=0;" edge="1" parent="1" source="BigQCFhnfqjvSyWV48ns-33" target="BigQCFhnfqjvSyWV48ns-88">
          <mxGeometry relative="1" as="geometry" />
        </mxCell>
        <mxCell id="BigQCFhnfqjvSyWV48ns-98" value="N" style="edgeLabel;html=1;align=center;verticalAlign=middle;resizable=0;points=[];" vertex="1" connectable="0" parent="BigQCFhnfqjvSyWV48ns-89">
          <mxGeometry x="0.5436" y="3" relative="1" as="geometry">
            <mxPoint x="14" as="offset" />
          </mxGeometry>
        </mxCell>
        <mxCell id="BigQCFhnfqjvSyWV48ns-33" value="Morador" style="whiteSpace=wrap;html=1;align=center;" vertex="1" parent="1">
          <mxGeometry x="500" y="700" width="100" height="40" as="geometry" />
        </mxCell>
        <mxCell id="BigQCFhnfqjvSyWV48ns-91" style="edgeStyle=orthogonalEdgeStyle;rounded=0;orthogonalLoop=1;jettySize=auto;html=1;entryX=0;entryY=0.5;entryDx=0;entryDy=0;endArrow=none;endFill=0;" edge="1" parent="1" source="BigQCFhnfqjvSyWV48ns-35" target="BigQCFhnfqjvSyWV48ns-82">
          <mxGeometry relative="1" as="geometry" />
        </mxCell>
        <mxCell id="BigQCFhnfqjvSyWV48ns-92" value="1" style="edgeLabel;html=1;align=center;verticalAlign=middle;resizable=0;points=[];" vertex="1" connectable="0" parent="BigQCFhnfqjvSyWV48ns-91">
          <mxGeometry x="0.7073" y="2" relative="1" as="geometry">
            <mxPoint y="-5" as="offset" />
          </mxGeometry>
        </mxCell>
        <mxCell id="BigQCFhnfqjvSyWV48ns-35" value="Síndico" style="whiteSpace=wrap;html=1;align=center;" vertex="1" parent="1">
          <mxGeometry x="500" y="495" width="100" height="40" as="geometry" />
        </mxCell>
        <mxCell id="BigQCFhnfqjvSyWV48ns-39" value="Número do apartamento" style="ellipse;whiteSpace=wrap;html=1;align=center;" vertex="1" parent="1">
          <mxGeometry x="620" y="800" width="130" height="40" as="geometry" />
        </mxCell>
        <mxCell id="BigQCFhnfqjvSyWV48ns-42" value="Bloco do condomínio" style="ellipse;whiteSpace=wrap;html=1;align=center;" vertex="1" parent="1">
          <mxGeometry x="380" y="800" width="100" height="40" as="geometry" />
        </mxCell>
        <mxCell id="BigQCFhnfqjvSyWV48ns-43" value="Atualizado em" style="ellipse;whiteSpace=wrap;html=1;align=center;" vertex="1" parent="1">
          <mxGeometry x="500" y="890" width="100" height="40" as="geometry" />
        </mxCell>
        <mxCell id="BigQCFhnfqjvSyWV48ns-73" style="rounded=0;orthogonalLoop=1;jettySize=auto;html=1;endArrow=none;endFill=0;" edge="1" parent="1" source="BigQCFhnfqjvSyWV48ns-52" target="BigQCFhnfqjvSyWV48ns-59">
          <mxGeometry relative="1" as="geometry" />
        </mxCell>
        <mxCell id="BigQCFhnfqjvSyWV48ns-74" style="rounded=0;orthogonalLoop=1;jettySize=auto;html=1;entryX=0.5;entryY=1;entryDx=0;entryDy=0;endArrow=none;endFill=0;" edge="1" parent="1" source="BigQCFhnfqjvSyWV48ns-52" target="BigQCFhnfqjvSyWV48ns-57">
          <mxGeometry relative="1" as="geometry" />
        </mxCell>
        <mxCell id="BigQCFhnfqjvSyWV48ns-75" style="rounded=0;orthogonalLoop=1;jettySize=auto;html=1;entryX=1;entryY=0.5;entryDx=0;entryDy=0;endArrow=none;endFill=0;" edge="1" parent="1" source="BigQCFhnfqjvSyWV48ns-52" target="BigQCFhnfqjvSyWV48ns-53">
          <mxGeometry relative="1" as="geometry" />
        </mxCell>
        <mxCell id="BigQCFhnfqjvSyWV48ns-76" style="rounded=0;orthogonalLoop=1;jettySize=auto;html=1;endArrow=none;endFill=0;" edge="1" parent="1" source="BigQCFhnfqjvSyWV48ns-52" target="BigQCFhnfqjvSyWV48ns-71">
          <mxGeometry relative="1" as="geometry" />
        </mxCell>
        <mxCell id="BigQCFhnfqjvSyWV48ns-77" style="rounded=0;orthogonalLoop=1;jettySize=auto;html=1;endArrow=none;endFill=0;entryX=0;entryY=0.5;entryDx=0;entryDy=0;" edge="1" parent="1" source="BigQCFhnfqjvSyWV48ns-52" target="BigQCFhnfqjvSyWV48ns-72">
          <mxGeometry relative="1" as="geometry" />
        </mxCell>
        <mxCell id="BigQCFhnfqjvSyWV48ns-52" value="Condomínio" style="whiteSpace=wrap;html=1;align=center;" vertex="1" parent="1">
          <mxGeometry x="940" y="495" width="100" height="40" as="geometry" />
        </mxCell>
        <mxCell id="BigQCFhnfqjvSyWV48ns-53" value="nome" style="ellipse;whiteSpace=wrap;html=1;align=center;" vertex="1" parent="1">
          <mxGeometry x="810" y="420" width="100" height="40" as="geometry" />
        </mxCell>
        <mxCell id="BigQCFhnfqjvSyWV48ns-54" value="cep" style="ellipse;whiteSpace=wrap;html=1;align=center;" vertex="1" parent="1">
          <mxGeometry x="1260" y="410" width="100" height="40" as="geometry" />
        </mxCell>
        <mxCell id="BigQCFhnfqjvSyWV48ns-55" value="número da rua" style="ellipse;whiteSpace=wrap;html=1;align=center;" vertex="1" parent="1">
          <mxGeometry x="1230" y="470" width="130" height="40" as="geometry" />
        </mxCell>
        <mxCell id="BigQCFhnfqjvSyWV48ns-57" value="cnpj" style="ellipse;whiteSpace=wrap;html=1;align=center;" vertex="1" parent="1">
          <mxGeometry x="960" y="660" width="100" height="40" as="geometry" />
        </mxCell>
        <mxCell id="BigQCFhnfqjvSyWV48ns-58" value="referência" style="ellipse;whiteSpace=wrap;html=1;align=center;" vertex="1" parent="1">
          <mxGeometry x="1070" y="250" width="100" height="40" as="geometry" />
        </mxCell>
        <mxCell id="BigQCFhnfqjvSyWV48ns-63" style="rounded=0;orthogonalLoop=1;jettySize=auto;html=1;entryX=0.5;entryY=1;entryDx=0;entryDy=0;endArrow=none;endFill=0;" edge="1" parent="1" source="BigQCFhnfqjvSyWV48ns-59" target="BigQCFhnfqjvSyWV48ns-58">
          <mxGeometry relative="1" as="geometry" />
        </mxCell>
        <mxCell id="BigQCFhnfqjvSyWV48ns-64" style="rounded=0;orthogonalLoop=1;jettySize=auto;html=1;entryX=0;entryY=1;entryDx=0;entryDy=0;endArrow=none;endFill=0;" edge="1" parent="1" source="BigQCFhnfqjvSyWV48ns-59" target="BigQCFhnfqjvSyWV48ns-60">
          <mxGeometry relative="1" as="geometry" />
        </mxCell>
        <mxCell id="BigQCFhnfqjvSyWV48ns-65" style="rounded=0;orthogonalLoop=1;jettySize=auto;html=1;entryX=0;entryY=0.5;entryDx=0;entryDy=0;endArrow=none;endFill=0;" edge="1" parent="1" source="BigQCFhnfqjvSyWV48ns-59" target="BigQCFhnfqjvSyWV48ns-54">
          <mxGeometry relative="1" as="geometry" />
        </mxCell>
        <mxCell id="BigQCFhnfqjvSyWV48ns-66" style="rounded=0;orthogonalLoop=1;jettySize=auto;html=1;endArrow=none;endFill=0;" edge="1" parent="1" source="BigQCFhnfqjvSyWV48ns-59" target="BigQCFhnfqjvSyWV48ns-55">
          <mxGeometry relative="1" as="geometry" />
        </mxCell>
        <mxCell id="BigQCFhnfqjvSyWV48ns-70" style="rounded=0;orthogonalLoop=1;jettySize=auto;html=1;entryX=0;entryY=0.5;entryDx=0;entryDy=0;endArrow=none;endFill=0;" edge="1" parent="1" source="BigQCFhnfqjvSyWV48ns-59" target="BigQCFhnfqjvSyWV48ns-68">
          <mxGeometry relative="1" as="geometry" />
        </mxCell>
        <mxCell id="BigQCFhnfqjvSyWV48ns-79" style="rounded=0;orthogonalLoop=1;jettySize=auto;html=1;entryX=1;entryY=1;entryDx=0;entryDy=0;endArrow=none;endFill=0;" edge="1" parent="1" source="BigQCFhnfqjvSyWV48ns-59" target="BigQCFhnfqjvSyWV48ns-78">
          <mxGeometry relative="1" as="geometry" />
        </mxCell>
        <mxCell id="BigQCFhnfqjvSyWV48ns-81" style="rounded=0;orthogonalLoop=1;jettySize=auto;html=1;entryX=1;entryY=0.5;entryDx=0;entryDy=0;endArrow=none;endFill=0;" edge="1" parent="1" source="BigQCFhnfqjvSyWV48ns-59" target="BigQCFhnfqjvSyWV48ns-80">
          <mxGeometry relative="1" as="geometry" />
        </mxCell>
        <mxCell id="BigQCFhnfqjvSyWV48ns-59" value="Localização" style="ellipse;whiteSpace=wrap;html=1;align=center;" vertex="1" parent="1">
          <mxGeometry x="1080" y="410" width="100" height="40" as="geometry" />
        </mxCell>
        <mxCell id="BigQCFhnfqjvSyWV48ns-60" value="estado" style="ellipse;whiteSpace=wrap;html=1;align=center;" vertex="1" parent="1">
          <mxGeometry x="1175" y="300" width="100" height="40" as="geometry" />
        </mxCell>
        <mxCell id="BigQCFhnfqjvSyWV48ns-68" value="complemento" style="ellipse;whiteSpace=wrap;html=1;align=center;" vertex="1" parent="1">
          <mxGeometry x="1260" y="350" width="100" height="40" as="geometry" />
        </mxCell>
        <mxCell id="BigQCFhnfqjvSyWV48ns-71" value="criado em" style="ellipse;whiteSpace=wrap;html=1;align=center;" vertex="1" parent="1">
          <mxGeometry x="1080" y="560" width="100" height="40" as="geometry" />
        </mxCell>
        <mxCell id="BigQCFhnfqjvSyWV48ns-72" value="atualizado em" style="ellipse;whiteSpace=wrap;html=1;align=center;" vertex="1" parent="1">
          <mxGeometry x="1080" y="630" width="100" height="40" as="geometry" />
        </mxCell>
        <mxCell id="BigQCFhnfqjvSyWV48ns-78" value="cidade" style="ellipse;whiteSpace=wrap;html=1;align=center;" vertex="1" parent="1">
          <mxGeometry x="960" y="290" width="100" height="40" as="geometry" />
        </mxCell>
        <mxCell id="BigQCFhnfqjvSyWV48ns-80" value="bairro" style="ellipse;whiteSpace=wrap;html=1;align=center;" vertex="1" parent="1">
          <mxGeometry x="930" y="360" width="100" height="40" as="geometry" />
        </mxCell>
        <mxCell id="BigQCFhnfqjvSyWV48ns-84" style="edgeStyle=orthogonalEdgeStyle;rounded=0;orthogonalLoop=1;jettySize=auto;html=1;entryX=0;entryY=0.5;entryDx=0;entryDy=0;endArrow=none;endFill=0;" edge="1" parent="1" source="BigQCFhnfqjvSyWV48ns-82" target="BigQCFhnfqjvSyWV48ns-52">
          <mxGeometry relative="1" as="geometry" />
        </mxCell>
        <mxCell id="BigQCFhnfqjvSyWV48ns-93" value="1" style="edgeLabel;html=1;align=center;verticalAlign=middle;resizable=0;points=[];" vertex="1" connectable="0" parent="BigQCFhnfqjvSyWV48ns-84">
          <mxGeometry x="-0.7894" y="-2" relative="1" as="geometry">
            <mxPoint y="-9" as="offset" />
          </mxGeometry>
        </mxCell>
        <mxCell id="BigQCFhnfqjvSyWV48ns-82" value="Gerencia" style="shape=rhombus;perimeter=rhombusPerimeter;whiteSpace=wrap;html=1;align=center;" vertex="1" parent="1">
          <mxGeometry x="700" y="485" width="120" height="60" as="geometry" />
        </mxCell>
        <mxCell id="BigQCFhnfqjvSyWV48ns-87" style="edgeStyle=orthogonalEdgeStyle;rounded=0;orthogonalLoop=1;jettySize=auto;html=1;entryX=0;entryY=0.5;entryDx=0;entryDy=0;endArrow=none;endFill=0;" edge="1" parent="1" source="BigQCFhnfqjvSyWV48ns-85" target="BigQCFhnfqjvSyWV48ns-52">
          <mxGeometry relative="1" as="geometry" />
        </mxCell>
        <mxCell id="BigQCFhnfqjvSyWV48ns-96" value="N" style="edgeLabel;html=1;align=center;verticalAlign=middle;resizable=0;points=[];" vertex="1" connectable="0" parent="BigQCFhnfqjvSyWV48ns-87">
          <mxGeometry x="-0.7979" y="-4" relative="1" as="geometry">
            <mxPoint x="-13" y="-10" as="offset" />
          </mxGeometry>
        </mxCell>
        <mxCell id="BigQCFhnfqjvSyWV48ns-85" value="Trabalha" style="shape=rhombus;perimeter=rhombusPerimeter;whiteSpace=wrap;html=1;align=center;" vertex="1" parent="1">
          <mxGeometry x="700" y="580" width="120" height="60" as="geometry" />
        </mxCell>
        <mxCell id="BigQCFhnfqjvSyWV48ns-90" style="rounded=0;orthogonalLoop=1;jettySize=auto;html=1;entryX=0;entryY=0.5;entryDx=0;entryDy=0;edgeStyle=orthogonalEdgeStyle;endArrow=none;endFill=0;" edge="1" parent="1" source="BigQCFhnfqjvSyWV48ns-88" target="BigQCFhnfqjvSyWV48ns-52">
          <mxGeometry relative="1" as="geometry">
            <mxPoint x="940" y="510" as="targetPoint" />
          </mxGeometry>
        </mxCell>
        <mxCell id="BigQCFhnfqjvSyWV48ns-97" value="N" style="edgeLabel;html=1;align=center;verticalAlign=middle;resizable=0;points=[];" vertex="1" connectable="0" parent="BigQCFhnfqjvSyWV48ns-90">
          <mxGeometry x="-0.9334" y="2" relative="1" as="geometry">
            <mxPoint x="-2" y="-4" as="offset" />
          </mxGeometry>
        </mxCell>
        <mxCell id="BigQCFhnfqjvSyWV48ns-88" value="Mora" style="shape=rhombus;perimeter=rhombusPerimeter;whiteSpace=wrap;html=1;align=center;" vertex="1" parent="1">
          <mxGeometry x="700" y="690" width="120" height="60" as="geometry" />
        </mxCell>
      </root>
    </mxGraphModel>
  </diagram>
</mxfile>
